<svg width="18" height="14" viewBox="0 0 18 14" fill="none" xmlns="http://www.w3.org/2000/svg">
<path d="M11.88 0.967222C5.67 -1.01278 0 3.57722 0 9.51722C0 10.3272 0.09 11.8572 0.36 12.7572C0.36 12.9372 0.54 13.1172 0.72 13.1172H17.19C17.37 13.1172 17.55 12.9372 17.64 12.7572C17.82 11.8572 18 10.3272 18 9.51722C18 5.64722 15.57 2.13722 11.88 0.967222ZM9 2.31722C9.54 2.31722 9.9 2.67722 9.9 3.21722C9.9 3.75722 9.54 4.11722 9 4.11722C8.46 4.11722 8.1 3.75722 8.1 3.21722C8.1 2.67722 8.46 2.31722 9 2.31722ZM2.7 10.4172C2.16 10.4172 1.8 10.0572 1.8 9.51722C1.8 8.97722 2.16 8.61722 2.7 8.61722C3.24 8.61722 3.6 8.97722 3.6 9.51722C3.6 10.0572 3.24 10.4172 2.7 10.4172ZM5.22 5.73722C4.86 6.09722 4.32 6.09722 3.96 5.73722C3.6 5.37722 3.6 4.74722 3.87 4.38722C4.23 4.02722 4.77 4.02722 5.13 4.38722C5.49 4.74722 5.49 5.37722 5.22 5.73722ZM9 11.3172C8.01 11.3172 7.11 10.4172 7.38 9.51722C7.65 8.61722 9 5.91722 9 5.91722C9 5.91722 10.35 8.61722 10.62 9.51722C10.89 10.4172 9.99 11.3172 9 11.3172ZM14.13 5.73722C13.77 6.09722 13.23 6.09722 12.87 5.73722C12.51 5.37722 12.51 4.83722 12.87 4.47722C13.23 4.11722 13.77 4.11722 14.13 4.47722C14.4 4.74722 14.4 5.37722 14.13 5.73722ZM15.3 10.4172C14.76 10.4172 14.4 10.0572 14.4 9.51722C14.4 8.97722 14.76 8.61722 15.3 8.61722C15.84 8.61722 16.2 8.97722 16.2 9.51722C16.2 10.0572 15.84 10.4172 15.3 10.4172Z" fill="white"/>
</svg>
