<svg width="45" height="46" viewBox="0 0 45 46" fill="none" xmlns="http://www.w3.org/2000/svg">
<rect y="0.5" width="45" height="45" rx="22.5" fill="black" fill-opacity="0.01"/>
<path d="M23 22.5C22.7239 22.5 22.5 22.7239 22.5 23C22.5 23.2761 22.7239 23.5 23 23.5L23 22.5ZM34.6265 23.5C34.9026 23.5 35.1265 23.2761 35.1265 23C35.1265 22.7239 34.9026 22.5 34.6265 22.5L34.6265 23.5ZM31.2779 26.1537C31.0866 26.3528 31.093 26.6693 31.2922 26.8606C31.4913 27.0519 31.8078 27.0455 31.9991 26.8463L31.2779 26.1537ZM35 23L35.3606 23.3463C35.5465 23.1528 35.5465 22.8472 35.3606 22.6537L35 23ZM31.9991 19.1537C31.8078 18.9545 31.4913 18.9481 31.2922 19.1394C31.093 19.3307 31.0866 19.6472 31.2779 19.8463L31.9991 19.1537ZM23 23.5L34.6265 23.5L34.6265 22.5L23 22.5L23 23.5ZM31.9991 26.8463L35.3606 23.3463L34.6394 22.6537L31.2779 26.1537L31.9991 26.8463ZM35.3606 22.6537L31.9991 19.1537L31.2779 19.8463L34.6394 23.3463L35.3606 22.6537Z" fill="#F58220"/>
<path d="M28 17.9653C28 17.4466 28 16.9485 28 16.4998C28 15.3953 27.1046 14.5 26 14.5L18 14.5C16.8954 14.5 16 15.3954 16 16.5L16 29.5C16 30.6046 16.8954 31.5 18 31.5L26 31.5C27.1046 31.5 28 30.6046 28 29.5L28 28.0347" stroke="#474C54" stroke-linecap="round"/>
</svg>
