<svg width="26" height="27" viewBox="0 0 26 27" fill="none" xmlns="http://www.w3.org/2000/svg">
<path fill-rule="evenodd" clip-rule="evenodd" d="M12.9999 26.4439C20.1486 26.4439 25.9438 20.6487 25.9438 13.5C25.9438 6.35121 20.1486 0.556 12.9999 0.556C5.85112 0.556 0.0559082 6.35121 0.0559082 13.5C0.0559082 20.6487 5.85112 26.4439 12.9999 26.4439ZM2.21369 17.0024C1.85374 15.8964 1.65917 14.7159 1.65917 13.4898C1.65917 12.2705 1.85162 11.0961 2.20781 9.99533H23.7912C24.1474 11.0961 24.3398 12.2705 24.3398 13.4898C24.3398 14.7159 24.1453 15.8964 23.7853 17.0024H2.21369ZM2.44759 17.6525H6.67179C6.93259 18.9188 7.40996 20.0257 7.98252 20.9755H4.48074C3.62417 20.0015 2.93199 18.8794 2.44759 17.6525ZM5.09951 21.6256H8.40492C8.89123 22.3224 9.41958 22.92 9.92874 23.4196C10.493 23.9732 11.036 24.409 11.477 24.7287C9.01233 24.398 6.79839 23.2755 5.09951 21.6256ZM12.6563 24.731L12.6265 24.7132C12.4991 24.6368 12.3143 24.5209 12.0889 24.3653C11.6376 24.0538 11.0251 23.5845 10.3841 22.9555C9.99205 22.5708 9.59059 22.1277 9.20909 21.6256H12.6563V24.731ZM12.6563 20.9755H8.75012C8.13823 20.0396 7.61895 18.9328 7.33654 17.6525H12.6563V20.9755ZM13.3064 17.6525V20.9755H17.2791C17.8924 20.0406 18.4139 18.9341 18.7008 17.6525H13.3064ZM19.366 17.6525H23.5514C23.067 18.8794 22.3748 20.0015 21.5182 20.9755H18.0474C18.6214 20.0265 19.101 18.9199 19.366 17.6525ZM17.6237 21.6256H20.8994C19.2054 23.2708 16.9994 24.3915 14.5433 24.7258C14.9807 24.4102 15.5171 23.982 16.075 23.4389C16.5919 22.9357 17.1293 22.3318 17.6237 21.6256ZM13.3064 24.7589V21.6256H16.8186C16.4298 22.1357 16.0205 22.5846 15.6215 22.9731C14.9801 23.5975 14.3685 24.0624 13.9182 24.3706C13.6932 24.5245 13.509 24.6391 13.382 24.7146C13.354 24.7313 13.3287 24.746 13.3064 24.7589ZM23.5585 9.3452H19.2637C19.0055 8.08095 18.5334 6.97385 17.9669 6.02226H21.5342C22.3876 6.99685 23.0768 8.1189 23.5585 9.3452ZM20.9181 5.37212H17.55C17.0632 4.66515 16.5335 4.05875 16.0233 3.55207C15.4707 3.00336 14.9388 2.56926 14.5043 2.24847C16.9851 2.5774 19.2127 3.70832 20.9181 5.37212ZM13.3064 2.22425L13.3386 2.24378C13.465 2.3209 13.6484 2.43779 13.8723 2.59461C14.3203 2.90847 14.9284 3.38104 15.5651 4.01339C15.9604 4.40592 16.3654 4.85872 16.7497 5.37212H13.3064V2.22425ZM13.3064 6.02226H17.2021C17.807 6.96029 18.3199 8.06739 18.5992 9.3452H13.3064V6.02226ZM12.6563 9.3452V6.02226H8.68019C8.06196 6.95924 7.53789 8.06601 7.25218 9.3452H12.6563ZM6.58707 9.3452H2.44045C2.92217 8.1189 3.61136 6.99685 4.46478 6.02226H7.91061C7.3325 6.97284 6.85085 8.07965 6.58707 9.3452ZM8.33669 5.37212H5.08082C6.77618 3.71806 8.98772 2.59067 11.451 2.25433C11.011 2.57072 10.4746 2.99701 9.91723 3.53498C9.38931 4.04454 8.84045 4.65647 8.33669 5.37212ZM12.6563 2.23996V5.37212H9.14329C9.54069 4.85365 9.9599 4.39739 10.3687 4.00275C11.0192 3.37492 11.6398 2.90663 12.097 2.59588C12.3254 2.44061 12.5125 2.32498 12.6414 2.24872L12.6563 2.23996ZM1.00903 13.4898C1.00903 20.1118 6.3774 25.4802 12.9994 25.4802C19.6214 25.4802 24.99 20.1118 24.99 13.4898C24.99 6.86773 19.6214 1.49936 12.9994 1.49936C6.3774 1.49936 1.00903 6.86774 1.00903 13.4898ZM4.90473 10.6082C4.08824 10.6257 3.37934 11.2268 3.38421 12.1867C3.38687 12.7131 3.77106 13.1353 4.16856 13.5722L4.2386 13.6493C4.42427 13.8541 4.57248 13.9902 4.68877 14.0969C4.97966 14.3639 5.07092 14.4477 5.04954 14.9671C5.03854 15.2331 4.59709 15.6488 4.12275 15.6477C3.41998 15.6464 2.92877 14.9718 3.12355 14.1561H2.92081L2.38501 16.0966H2.58775C2.64004 15.9207 2.9582 15.914 3.14421 15.9101C3.16893 15.9096 3.19132 15.9091 3.21043 15.9083C3.33995 15.9029 3.44601 15.9437 3.5729 15.9925C3.74672 16.0594 3.95963 16.1414 4.32548 16.14C5.19148 16.1368 6.04251 15.5704 6.03426 14.5181C6.03003 13.9721 5.69495 13.6012 5.25228 13.1714C4.57131 12.5105 4.30586 12.1946 4.42685 11.6654C4.52694 11.2274 4.83981 11.1047 5.15091 11.1006C5.73368 11.0931 5.98449 11.7075 6.06322 12.346H6.25148L6.72935 10.7241H6.52662C6.48216 10.9157 6.24785 10.9253 6.06322 10.9123C6.04575 10.9111 6.02987 10.9108 6.01381 10.9106C5.95344 10.9097 5.89047 10.9087 5.73015 10.8544C5.67367 10.8353 5.60868 10.8089 5.5387 10.7806C5.34066 10.7004 5.10271 10.6041 4.90473 10.6082ZM6.94657 10.8254L6.88865 11.144L6.90062 11.1441C7.21145 11.1453 7.32399 11.1458 7.32308 11.7378V16.0966C7.32308 16.0966 7.40745 16.2879 7.52582 16.0966C7.64426 15.9051 9.56766 12.7225 9.56766 12.7225V12.8238L9.55318 16.0966C9.55318 16.0966 9.67562 16.2879 9.79936 16.0966C9.91931 15.911 12.4201 11.784 12.5725 11.5325L12.5797 11.5205C12.7009 11.303 12.7929 11.1515 13.1011 11.144L13.1735 10.8254H11.5371L11.4792 11.144C11.5459 11.1442 11.6086 11.1423 11.6663 11.1406H11.6663C11.9184 11.1331 12.0781 11.1284 12.0874 11.3033C12.0922 11.3935 12.0759 11.4659 12.015 11.5785L10.6682 13.7796L10.6393 13.7362V11.7378C10.6405 11.6479 10.641 11.5593 10.6393 11.4916C10.6304 11.1522 10.7236 11.1447 10.9868 11.144L11.0447 10.8254H9.22011L9.16218 11.144C9.43696 11.1515 9.55706 11.2312 9.55318 11.4771V11.926L8.3802 13.823L8.33676 13.852V11.7233L8.3369 11.6566V11.6564C8.33707 11.5887 8.33728 11.509 8.33676 11.4481L8.33637 11.4264C8.33387 11.3102 8.3303 11.1447 8.64086 11.144L8.72775 10.8254H6.94657ZM13.4196 10.8254L13.3617 11.144C13.5113 11.1363 13.6639 11.1928 13.6803 11.3612C13.6853 11.4137 13.6646 11.4836 13.6392 11.5695C13.6291 11.6038 13.6182 11.6406 13.6079 11.6798L12.6087 15.4015C12.5497 15.6487 12.2524 15.7811 11.8557 15.778L11.7978 16.0966H13.9265L13.9989 15.778C13.6411 15.7708 13.6452 15.6761 13.6506 15.5512L13.6513 15.5318C13.6533 15.4754 13.6723 15.4221 13.6932 15.3632C13.7035 15.3342 13.7143 15.3039 13.7237 15.2712L14.7374 11.535C14.8417 11.1856 15.0931 11.1518 15.476 11.144L15.5484 10.8254H13.4196ZM15.838 10.8254L15.7656 11.144C15.7913 11.146 15.8179 11.1477 15.845 11.1495C16.152 11.1699 16.5236 11.1946 16.4172 11.535C16.4053 11.5734 16.4052 11.5852 16.4051 11.6009C16.405 11.6183 16.4049 11.6404 16.3883 11.7088L15.418 15.3291C15.3426 15.6652 15.1075 15.7704 14.8243 15.778L14.7374 16.0966H16.9965L17.0834 15.778C16.5893 15.7767 16.3895 15.7106 16.4896 15.3291L16.5043 15.2741C16.5264 15.1917 16.5564 15.0796 16.5765 14.9815L17.0399 13.3886H17.1413C17.5829 13.3869 17.7075 13.4419 17.7205 13.6782C17.7241 13.744 17.7253 13.8044 17.7264 13.8588L17.7264 13.859C17.7279 13.9301 17.7291 13.991 17.735 14.0403H17.9812L18.3577 12.4908L18.155 12.4618C17.9461 12.9956 17.5008 13.0031 17.344 12.9976H17.1413L17.4599 11.7233C17.591 11.2776 17.6383 11.2772 17.9418 11.2749L17.9957 11.2744C18.6094 11.267 18.9737 11.3676 18.9225 12.2301H19.1252L19.5017 10.8254H15.838ZM19.7913 10.8254L19.4004 12.2301H19.6321L19.6584 12.138C19.7473 11.8257 19.7676 11.7544 19.9796 11.564C20.2172 11.3563 20.4725 11.2744 20.8774 11.2744L19.8203 15.1408C19.748 15.7643 19.3929 15.7702 18.9401 15.7777L18.9225 15.778L18.8501 16.0966H21.2395L21.2974 15.807C20.9916 15.8353 20.8034 15.6343 20.8629 15.4015C20.8715 15.3681 20.8826 15.3288 20.8952 15.2846C20.9164 15.21 20.9415 15.1216 20.9643 15.025L21.949 11.2744C22.6991 11.2739 22.8494 11.575 22.8034 12.2301H23.0206L23.3972 10.8254H19.7913ZM10.7406 15.5029C10.6151 15.5024 10.4832 15.6591 10.451 15.8504C10.4188 16.0417 10.4993 16.1975 10.6248 16.198C10.7501 16.1985 10.8822 16.0417 10.9144 15.8504C10.9466 15.6592 10.866 15.5034 10.7406 15.5029ZM14.4478 15.5029C14.3224 15.5024 14.1903 15.6591 14.1582 15.8504C14.1259 16.0417 14.2065 16.1975 14.332 16.198C14.4574 16.1985 14.5894 16.0417 14.6216 15.8504C14.6539 15.6592 14.5732 15.5034 14.4478 15.5029ZM17.6337 15.5029C17.5082 15.5024 17.3762 15.6591 17.344 15.8504C17.3117 16.0417 17.3779 16.1975 17.5033 16.198C17.6287 16.1985 17.7608 16.0417 17.7929 15.8504C17.8252 15.6592 17.7591 15.5034 17.6337 15.5029ZM6.22251 15.5173C6.09717 15.5168 5.97955 15.6736 5.94737 15.8649C5.91514 16.0562 5.98132 16.2119 6.10666 16.2124C6.2321 16.213 6.36412 16.0562 6.39629 15.8649C6.42854 15.6736 6.34795 15.5179 6.22251 15.5173ZM21.8911 15.5173C21.7657 15.5169 21.6336 15.6736 21.6015 15.8649C21.5692 16.0562 21.6498 16.212 21.7753 16.2124C21.9007 16.213 22.0327 16.0562 22.0649 15.8649C22.0972 15.6737 22.0165 15.5179 21.8911 15.5173Z" fill="white"/>
</svg>
