<svg width="22" height="23" viewBox="0 0 22 23" fill="none" xmlns="http://www.w3.org/2000/svg">
<path d="M11.0003 0.500183C4.92534 0.500183 0.000488281 5.42519 0.000488281 11.5C0.000488281 17.5748 4.92534 22.5002 11.0003 22.5002C17.0753 22.5002 22.0005 17.5748 22.0005 11.5C22.0005 5.42519 17.0753 0.500183 11.0003 0.500183ZM15.7558 13.5922H11.0923C11.0766 13.5922 11.0619 13.5883 11.0463 13.5878C11.0307 13.5885 11.0161 13.5922 11.0002 13.5922C10.5801 13.5922 10.2395 13.2515 10.2395 12.8314V5.06519C10.2395 4.64505 10.5801 4.30441 11.0002 4.30441C11.4204 4.30441 11.761 4.64505 11.761 5.06519V12.0706H15.7555C16.1757 12.0706 16.5163 12.4113 16.5163 12.8314C16.5163 13.2515 16.176 13.5922 15.7558 13.5922Z" fill="white"/>
</svg>
