<svg width="96" height="102" viewBox="0 0 96 102" fill="none" xmlns="http://www.w3.org/2000/svg">
<g filter="url(#filter0_d)">
<path d="M81 33.2871C81 47.2401 72.2842 58.1574 60 62.8916C56.3421 64.3014 49.5 66.5 45.5 67.5C41.5 68.5 31.9735 72.0964 29.5 71.5C26.29 70.726 34.2641 63.6409 31.5 62C21.8763 56.2869 15.4258 45.2907 15.4258 33.2871C15.4258 15.1793 30.1051 0.5 48.2129 0.500001C66.3207 0.500001 81 15.1793 81 33.2871Z" fill="#FAA61A"/>
<path fill-rule="evenodd" clip-rule="evenodd" d="M55.7969 35.1007V39.2225H42.5224C41.3498 39.2176 40.2252 38.7458 39.3867 37.9072C38.5482 37.0686 38.0618 35.929 38.0304 34.7297V31.8239C38.0304 31.2213 38.1467 30.6247 38.3727 30.0682C38.5987 29.5118 38.9299 29.0065 39.3473 28.5814C39.7646 28.1563 40.26 27.8197 40.8049 27.591C41.3497 27.3623 41.9334 27.2459 42.5224 27.2487H55.8171C56.3513 27.2487 56.8636 27.4658 57.2414 27.8523C57.6192 28.2388 57.8314 28.763 57.8314 29.3096C57.8314 29.8561 57.6192 30.3803 57.2414 30.7668C56.8636 31.1533 56.3513 31.3705 55.8171 31.3705H41.4346V35.1007H55.7969ZM42.5224 18.8608H56.5019C59.1829 19.0252 61.7057 20.2136 63.5709 22.1907C65.4362 24.1677 66.5078 26.7893 66.5737 29.5363C66.528 31.6545 65.8912 33.7151 64.7384 35.4752C63.5856 37.2352 61.9648 38.6213 60.0673 39.4698L55.7969 35.1007C56.5388 35.12 57.2769 34.9871 57.9678 34.7098C58.6587 34.4326 59.2883 34.0167 59.8196 33.4866C60.3509 32.9565 60.7731 32.3229 61.0612 31.6232C61.3494 30.9235 61.4978 30.1719 61.4975 29.4126C61.471 27.8875 60.8575 26.4346 59.7901 25.3696C58.7227 24.3046 57.2878 23.7134 55.7969 23.7245H42.5224C40.4228 23.7245 38.4092 24.5778 36.9246 26.0968C35.44 27.6157 34.606 29.6758 34.606 31.8239V34.7297C34.606 36.8778 35.44 38.9379 36.9246 40.4568C38.4092 41.9758 40.4228 42.8291 42.5224 42.8291H55.8171V47.7134H42.5224C39.1601 47.708 35.9375 46.3376 33.5619 43.9033C31.1864 41.469 29.8521 38.1697 29.8521 34.7297L29.8521 31.8239C29.8574 28.3875 31.194 25.0935 33.569 22.6636C35.944 20.2337 39.1636 18.8662 42.5224 18.8608V18.8608Z" fill="white"/>
</g>
<defs>
<filter id="filter0_d" x="0.425781" y="0.5" width="95.5742" height="101.066" filterUnits="userSpaceOnUse" color-interpolation-filters="sRGB">
<feFlood flood-opacity="0" result="BackgroundImageFix"/>
<feColorMatrix in="SourceAlpha" type="matrix" values="0 0 0 0 0 0 0 0 0 0 0 0 0 0 0 0 0 0 127 0"/>
<feOffset dy="15"/>
<feGaussianBlur stdDeviation="7.5"/>
<feColorMatrix type="matrix" values="0 0 0 0 0 0 0 0 0 0 0 0 0 0 0 0 0 0 0.15 0"/>
<feBlend mode="normal" in2="BackgroundImageFix" result="effect1_dropShadow"/>
<feBlend mode="normal" in="SourceGraphic" in2="effect1_dropShadow" result="shape"/>
</filter>
</defs>
</svg>
