<svg width="24" height="26" viewBox="0 0 24 26" fill="none" xmlns="http://www.w3.org/2000/svg">
<path d="M12.0007 20.4072L0.88916 12.5371V16.7345V23.8763C0.88916 24.7733 1.58347 25.5001 2.44031 25.5001H21.5602C22.4171 25.5001 23.1114 24.7733 23.1114 23.8763V16.7345V12.5371L12.0007 20.4072Z" fill="white"/>
<path d="M4.18285 13.119L6.00891 14.3889V3.76212C6.00891 2.99803 6.61393 2.37639 7.35747 2.37639H16.6431C17.3867 2.37639 17.9916 2.99809 17.9916 3.76212V14.3889L19.8177 13.119L22.3134 11.3837L23.1114 10.8288L19.8177 8.75359V3.76212C19.8177 1.96038 18.3965 0.5 16.6431 0.5H7.35747C5.60406 0.5 4.18285 1.96038 4.18285 3.76212V8.75359L0.88916 10.8288L1.68671 11.3837L4.18285 13.119Z" fill="white"/>
<path fill-rule="evenodd" clip-rule="evenodd" d="M9.34233 8.03704C8.83096 8.03704 8.41641 7.62249 8.41641 7.11111L8.41641 6.24492C8.41641 5.22217 9.24551 4.39306 10.2683 4.39306L13.972 4.39306C14.9947 4.39306 15.8238 5.22217 15.8238 6.24492L15.8238 7.11111C15.8238 7.62249 15.4093 8.03704 14.8979 8.03704C14.3865 8.03704 13.972 7.62249 13.972 7.11111L13.972 6.24492L10.2683 6.24492L10.2683 7.11111C10.2683 7.62249 9.85371 8.03704 9.34233 8.03704Z" fill="white"/>
<path fill-rule="evenodd" clip-rule="evenodd" d="M14.8979 19.5064C15.4093 19.5064 15.8238 19.921 15.8238 20.4323L15.8238 21.2985C15.8238 22.3213 14.9947 23.1504 13.972 23.1504L10.2683 23.1504C9.24551 23.1504 8.41641 22.3213 8.41641 21.2985L8.41641 20.4323C8.41641 19.921 8.83096 19.5064 9.34233 19.5064C9.85371 19.5064 10.2683 19.921 10.2683 20.4323L10.2683 21.2985L13.972 21.2985L13.972 20.4323C13.972 19.921 14.3865 19.5064 14.8979 19.5064Z" fill="white"/>
<path fill-rule="evenodd" clip-rule="evenodd" d="M14.2806 13.7718C14.2806 12.7068 13.371 11.7407 12.1201 11.7407C10.8692 11.7407 9.95958 12.7068 9.95958 13.7718C9.95958 14.8368 10.8692 15.8029 12.1201 15.8029C13.371 15.8029 14.2806 14.8368 14.2806 13.7718ZM16.1324 13.7718C16.1324 11.6273 14.336 9.88889 12.1201 9.88889C9.90411 9.88889 8.10773 11.6273 8.10773 13.7718C8.10773 15.9163 9.90412 17.6547 12.1201 17.6547C14.336 17.6547 16.1324 15.9163 16.1324 13.7718Z" fill="white"/>
</svg>
