<svg width="26" height="18" viewBox="0 0 26 18" fill="none" xmlns="http://www.w3.org/2000/svg">
<path fill-rule="evenodd" clip-rule="evenodd" d="M1.99988 0.500183C0.895309 0.500183 -0.00012207 1.39561 -0.00012207 2.50018V15.5002C-0.00012207 16.6048 0.895308 17.5002 1.99988 17.5002H23.9999C25.1044 17.5002 25.9999 16.6048 25.9999 15.5002V2.50018C25.9999 1.39561 25.1044 0.500183 23.9999 0.500183H1.99988ZM12.9999 6.50018C13.5522 6.50018 13.9999 6.05247 13.9999 5.50018C13.9999 4.9479 13.5522 4.50018 12.9999 4.50018H4.99988C4.44759 4.50018 3.99988 4.9479 3.99988 5.50018C3.99988 6.05247 4.44759 6.50018 4.99988 6.50018H12.9999ZM9.99988 10.5002C10.5522 10.5002 10.9999 10.0525 10.9999 9.50018C10.9999 8.9479 10.5522 8.50018 9.99988 8.50018H4.99988C4.44759 8.50018 3.99988 8.9479 3.99988 9.50018C3.99988 10.0525 4.44759 10.5002 4.99988 10.5002H9.99988ZM17.9999 9.50018C17.9999 10.0525 17.5522 10.5002 16.9999 10.5002H13.9999C13.4476 10.5002 12.9999 10.0525 12.9999 9.50018C12.9999 8.9479 13.4476 8.50018 13.9999 8.50018H16.9999C17.5522 8.50018 17.9999 8.9479 17.9999 9.50018ZM17.9999 6.50018C18.5522 6.50018 18.9999 6.05247 18.9999 5.50018C18.9999 4.9479 18.5522 4.50018 17.9999 4.50018H16.9999C16.4476 4.50018 15.9999 4.9479 15.9999 5.50018C15.9999 6.05247 16.4476 6.50018 16.9999 6.50018H17.9999Z" fill="white"/>
</svg>
