<svg width="172" height="173" viewBox="0 0 172 173" fill="none" xmlns="http://www.w3.org/2000/svg">
<mask id="path-1-outside-1" maskUnits="userSpaceOnUse" x="40" y="0.499994" width="132" height="172" fill="black">
<rect fill="white" x="40" y="0.499994" width="132" height="172"/>
<path d="M45 157.514C55.8927 163.803 68.0861 167.502 80.6369 168.324C93.1878 169.147 105.76 167.071 117.38 162.258C129 157.445 139.358 150.023 147.651 140.566C155.944 131.11 161.951 119.872 165.206 107.723C168.461 95.574 168.878 82.8387 166.424 70.5026C163.971 58.1665 158.712 46.5602 151.055 36.5816C143.398 26.6029 133.548 18.5195 122.268 12.9564C110.987 7.39342 98.5778 4.5 86 4.5L86 7.04182C98.1879 7.04182 110.212 9.84556 121.143 15.2361C132.074 20.6267 141.619 28.4596 149.038 38.1289C156.458 47.7982 161.554 59.0448 163.931 70.9985C166.309 82.9522 165.905 95.2927 162.751 107.065C159.596 118.838 153.776 129.727 145.74 138.89C137.704 148.054 127.667 155.246 116.407 159.91C105.147 164.574 92.965 166.585 80.8032 165.788C68.6414 164.991 56.8259 161.407 46.2709 155.313L45 157.514Z"/>
</mask>
<path d="M45 157.514C55.8927 163.803 68.0861 167.502 80.6369 168.324C93.1878 169.147 105.76 167.071 117.38 162.258C129 157.445 139.358 150.023 147.651 140.566C155.944 131.11 161.951 119.872 165.206 107.723C168.461 95.574 168.878 82.8387 166.424 70.5026C163.971 58.1665 158.712 46.5602 151.055 36.5816C143.398 26.6029 133.548 18.5195 122.268 12.9564C110.987 7.39342 98.5778 4.5 86 4.5L86 7.04182C98.1879 7.04182 110.212 9.84556 121.143 15.2361C132.074 20.6267 141.619 28.4596 149.038 38.1289C156.458 47.7982 161.554 59.0448 163.931 70.9985C166.309 82.9522 165.905 95.2927 162.751 107.065C159.596 118.838 153.776 129.727 145.74 138.89C137.704 148.054 127.667 155.246 116.407 159.91C105.147 164.574 92.965 166.585 80.8032 165.788C68.6414 164.991 56.8259 161.407 46.2709 155.313L45 157.514Z" fill="url(#paint0_linear)"/>
<path d="M45 157.514C55.8927 163.803 68.0861 167.502 80.6369 168.324C93.1878 169.147 105.76 167.071 117.38 162.258C129 157.445 139.358 150.023 147.651 140.566C155.944 131.11 161.951 119.872 165.206 107.723C168.461 95.574 168.878 82.8387 166.424 70.5026C163.971 58.1665 158.712 46.5602 151.055 36.5816C143.398 26.6029 133.548 18.5195 122.268 12.9564C110.987 7.39342 98.5778 4.5 86 4.5L86 7.04182C98.1879 7.04182 110.212 9.84556 121.143 15.2361C132.074 20.6267 141.619 28.4596 149.038 38.1289C156.458 47.7982 161.554 59.0448 163.931 70.9985C166.309 82.9522 165.905 95.2927 162.751 107.065C159.596 118.838 153.776 129.727 145.74 138.89C137.704 148.054 127.667 155.246 116.407 159.91C105.147 164.574 92.965 166.585 80.8032 165.788C68.6414 164.991 56.8259 161.407 46.2709 155.313L45 157.514Z" stroke="white" stroke-width="8" stroke-linecap="round" stroke-linejoin="round" mask="url(#path-1-outside-1)"/>
<mask id="path-2-outside-2" maskUnits="userSpaceOnUse" x="-6.95011e-06" y="0.499993" width="90" height="163" fill="black">
<rect fill="white" x="-6.95011e-06" y="0.499993" width="90" height="163"/>
<path d="M86 4.5C67.949 4.49999 50.4024 10.4563 36.0816 21.445C21.7607 32.4338 11.466 47.8409 6.79408 65.2768C2.12213 82.7128 3.33406 101.203 10.2419 117.88C17.1497 134.557 29.3673 148.489 45 157.514L46.2545 155.341C31.1003 146.592 19.2564 133.086 12.56 116.92C5.86354 100.753 4.6887 82.8286 9.21769 65.9262C13.7467 49.0238 23.7264 34.0881 37.609 23.4356C51.4916 12.7831 68.5013 7.0091 86 7.00911L86 4.5Z"/>
</mask>
<path d="M86 4.5C67.949 4.49999 50.4024 10.4563 36.0816 21.445C21.7607 32.4338 11.466 47.8409 6.79408 65.2768C2.12213 82.7128 3.33406 101.203 10.2419 117.88C17.1497 134.557 29.3673 148.489 45 157.514L46.2545 155.341C31.1003 146.592 19.2564 133.086 12.56 116.92C5.86354 100.753 4.6887 82.8286 9.21769 65.9262C13.7467 49.0238 23.7264 34.0881 37.609 23.4356C51.4916 12.7831 68.5013 7.0091 86 7.00911L86 4.5Z" fill="#5F6369"/>
<path d="M86 4.5C67.949 4.49999 50.4024 10.4563 36.0816 21.445C21.7607 32.4338 11.466 47.8409 6.79408 65.2768C2.12213 82.7128 3.33406 101.203 10.2419 117.88C17.1497 134.557 29.3673 148.489 45 157.514L46.2545 155.341C31.1003 146.592 19.2564 133.086 12.56 116.92C5.86354 100.753 4.6887 82.8286 9.21769 65.9262C13.7467 49.0238 23.7264 34.0881 37.609 23.4356C51.4916 12.7831 68.5013 7.0091 86 7.00911L86 4.5Z" stroke="white" stroke-width="8" mask="url(#path-2-outside-2)"/>
<defs>
<linearGradient id="paint0_linear" x1="80.875" y1="168.5" x2="80.875" y2="4.5" gradientUnits="userSpaceOnUse">
<stop offset="0.690608" stop-color="#FAA61A"/>
<stop offset="1" stop-color="#F58220"/>
</linearGradient>
</defs>
</svg>
